<?xml version="1.0" standalone="no"?><!DOCTYPE svg PUBLIC "-//W3C//DTD SVG 1.1//EN" "http://www.w3.org/Graphics/SVG/1.1/DTD/svg11.dtd"><svg t="1503719778516" class="icon" style="" viewBox="0 0 1024 1024" version="1.1" xmlns="http://www.w3.org/2000/svg" p-id="2378" xmlns:xlink="http://www.w3.org/1999/xlink" width="20" height="20"><defs><style type="text/css"></style></defs><path d="M512.6 921C285.8 921 102 737.1 102 510.3c0-226.8 183.9-410.7 410.7-410.7 226.8 0 410.7 183.9 410.7 410.7S739.5 921 512.6 921z m0-770c-198.5 0-359.3 160.9-359.3 359.3s160.9 359.3 359.3 359.3S872 708.7 872 510.3C872 311.8 711.1 151 512.6 151z m22.6 475.7c-6.2 6.2-14.6 8.1-22.6 6.7-8 1.4-16.4-0.5-22.6-6.7L293.6 430.2c-10-10-10-26.3 0-36.3 10-10 26.3-10 36.3 0l182.8 182.8 182.8-182.8c10-10 26.3-10 36.3 0 10 10 10 26.3 0 36.3L535.2 626.7z" fill="" p-id="2379"></path></svg>
