<?xml version="1.0" standalone="no"?><!DOCTYPE svg PUBLIC "-//W3C//DTD SVG 1.1//EN" "http://www.w3.org/Graphics/SVG/1.1/DTD/svg11.dtd"><svg t="1504077345724" class="icon" style="" viewBox="0 0 1024 1024" version="1.1" xmlns="http://www.w3.org/2000/svg" p-id="2926" xmlns:xlink="http://www.w3.org/1999/xlink" width="60" height="60"><defs><style type="text/css"></style></defs><path d="M510.742868 962.025507c247.552096 0 448.185602-201.01213 448.185602-448.952059S758.294964 64.123436 510.742868 64.123436c-247.51628 0-448.184579 201.011106-448.184579 448.951035S263.226588 962.025507 510.742868 962.025507zM510.742868 100.039437c227.349985 0 412.328953 185.297216 412.328953 413.034011 0 227.755214-184.979992 413.035034-412.328953 413.035034-227.383754 0-412.328953-185.27982-412.328953-413.035034C98.413915 285.336654 283.360138 100.039437 510.742868 100.039437z" p-id="2927" fill="#f53d0a"></path><path d="M537.94951 706.08844 563.300898 731.482807 781.298887 513.074472 563.300898 294.684556 537.94951 320.077899 712.67188 495.116471 277.686928 495.116471 277.686928 531.032472 712.67188 531.032472Z" p-id="2928" fill="#f53d0a"></path></svg>
