<?xml version="1.0" standalone="no"?><!DOCTYPE svg PUBLIC "-//W3C//DTD SVG 1.1//EN" "http://www.w3.org/Graphics/SVG/1.1/DTD/svg11.dtd"><svg t="1504064204223" class="icon" style="" viewBox="0 0 1024 1024" version="1.1" xmlns="http://www.w3.org/2000/svg" p-id="2389" xmlns:xlink="http://www.w3.org/1999/xlink" width="20" height="20"><defs><style type="text/css"></style></defs><path d="M992 992c-9.6 9.6-22.4 9.6-28.8 0L774.4 803.2l28.8-28.8L992 960c6.4 9.6 6.4 22.4 0 32zM454.4 883.2c-236.8 0-428.8-192-428.8-428.8s192-428.8 428.8-428.8 428.8 192 428.8 428.8-192 428.8-428.8 428.8z m0-812.8c-214.4 0-384 172.8-384 384 0 214.4 172.8 387.2 384 387.2 214.4 0 387.2-172.8 387.2-387.2 0-214.4-172.8-384-387.2-384z" p-id="2390"></path></svg>
